<mxfile host="app.diagrams.net" modified="2022-05-23T21:41:58.800Z" agent="5.0 (Windows NT 10.0; Win64; x64) AppleWebKit/537.36 (KHTML, like Gecko) Chrome/101.0.4951.67 Safari/537.36" etag="6IRkiaTryN0OcOLr2ZIg" version="18.1.1" type="github">
  <diagram name="Page-1" id="ad52d381-51e7-2e0d-a935-2d0ddd2fd229">
    <mxGraphModel dx="2547" dy="1663" grid="1" gridSize="10" guides="1" tooltips="1" connect="1" arrows="1" fold="1" page="1" pageScale="1" pageWidth="1100" pageHeight="850" background="none" math="0" shadow="0">
      <root>
        <mxCell id="0" />
        <mxCell id="1" parent="0" />
        <mxCell id="2c924340bb9dbf6c-1" value="&lt;span&gt;Topic 10&lt;/span&gt;" style="whiteSpace=wrap;html=1;rounded=1;shadow=1;comic=0;labelBackgroundColor=none;strokeWidth=2;fontFamily=Verdana;fontSize=12;align=center;arcSize=50;" parent="1" vertex="1">
          <mxGeometry x="-229.45999999999998" y="435" width="100" height="20" as="geometry" />
        </mxCell>
        <mxCell id="2c924340bb9dbf6c-2" value="OPTION 2.HTML" style="ellipse;whiteSpace=wrap;html=1;rounded=1;shadow=1;comic=0;labelBackgroundColor=none;strokeWidth=2;fontFamily=Verdana;fontSize=12;align=center;" parent="1" vertex="1">
          <mxGeometry x="-109.45999999999998" y="475" width="120" height="80" as="geometry" />
        </mxCell>
        <mxCell id="2c924340bb9dbf6c-3" value="ABOUT&lt;br&gt;US.HTML" style="ellipse;whiteSpace=wrap;html=1;rounded=1;shadow=1;comic=0;labelBackgroundColor=none;strokeWidth=2;fontFamily=Verdana;fontSize=12;align=center;" parent="1" vertex="1">
          <mxGeometry x="1475" y="25" width="120" height="80" as="geometry" />
        </mxCell>
        <mxCell id="2c924340bb9dbf6c-4" value="PAGINA" style="ellipse;whiteSpace=wrap;html=1;rounded=1;shadow=1;comic=0;labelBackgroundColor=none;strokeWidth=2;fontFamily=Verdana;fontSize=12;align=center;" parent="1" vertex="1">
          <mxGeometry x="530" y="260" width="120" height="120" as="geometry" />
        </mxCell>
        <mxCell id="2c924340bb9dbf6c-8" value="&lt;span&gt;Topic 11&lt;/span&gt;" style="whiteSpace=wrap;html=1;rounded=1;shadow=1;comic=0;labelBackgroundColor=none;strokeWidth=2;fontFamily=Verdana;fontSize=12;align=center;arcSize=50;" parent="1" vertex="1">
          <mxGeometry x="-259.46" y="505" width="100" height="20" as="geometry" />
        </mxCell>
        <mxCell id="2c924340bb9dbf6c-9" value="&lt;span&gt;Topic 12&lt;/span&gt;" style="whiteSpace=wrap;html=1;rounded=1;shadow=1;comic=0;labelBackgroundColor=none;strokeWidth=2;fontFamily=Verdana;fontSize=12;align=center;arcSize=50;" parent="1" vertex="1">
          <mxGeometry x="-259.46" y="575" width="100" height="20" as="geometry" />
        </mxCell>
        <mxCell id="2c924340bb9dbf6c-10" value="&lt;span&gt;Topic 9&lt;/span&gt;" style="whiteSpace=wrap;html=1;rounded=1;shadow=1;comic=0;labelBackgroundColor=none;strokeWidth=2;fontFamily=Verdana;fontSize=12;align=center;arcSize=50;" parent="1" vertex="1">
          <mxGeometry x="-49.45999999999998" y="405" width="100" height="20" as="geometry" />
        </mxCell>
        <mxCell id="ev3tFohQ87v30KC1wkny-150" style="edgeStyle=orthogonalEdgeStyle;rounded=0;orthogonalLoop=1;jettySize=auto;html=1;exitX=0.5;exitY=0;exitDx=0;exitDy=0;entryX=1.027;entryY=0.519;entryDx=0;entryDy=0;entryPerimeter=0;" edge="1" parent="1" source="2c924340bb9dbf6c-11" target="ev3tFohQ87v30KC1wkny-143">
          <mxGeometry relative="1" as="geometry">
            <Array as="points">
              <mxPoint x="1638" y="-164" />
            </Array>
          </mxGeometry>
        </mxCell>
        <mxCell id="ev3tFohQ87v30KC1wkny-151" style="edgeStyle=orthogonalEdgeStyle;rounded=0;orthogonalLoop=1;jettySize=auto;html=1;exitX=0;exitY=0.5;exitDx=0;exitDy=0;entryX=1;entryY=0.5;entryDx=0;entryDy=0;" edge="1" parent="1" source="2c924340bb9dbf6c-11" target="ev3tFohQ87v30KC1wkny-142">
          <mxGeometry relative="1" as="geometry">
            <Array as="points">
              <mxPoint x="1550" y="-115" />
            </Array>
          </mxGeometry>
        </mxCell>
        <mxCell id="ev3tFohQ87v30KC1wkny-152" style="edgeStyle=orthogonalEdgeStyle;rounded=0;orthogonalLoop=1;jettySize=auto;html=1;exitX=0.5;exitY=1;exitDx=0;exitDy=0;entryX=1;entryY=0.5;entryDx=0;entryDy=0;" edge="1" parent="1" source="2c924340bb9dbf6c-11" target="ev3tFohQ87v30KC1wkny-141">
          <mxGeometry relative="1" as="geometry" />
        </mxCell>
        <mxCell id="2c924340bb9dbf6c-11" value="&lt;span&gt;PERFIL DEL DEVELOPER&lt;/span&gt;" style="whiteSpace=wrap;html=1;rounded=1;shadow=1;comic=0;labelBackgroundColor=none;strokeWidth=2;fontFamily=Verdana;fontSize=12;align=center;arcSize=50;" parent="1" vertex="1">
          <mxGeometry x="1550" y="-70" width="175" height="30" as="geometry" />
        </mxCell>
        <mxCell id="2c924340bb9dbf6c-27" value="relation" style="edgeStyle=none;rounded=1;html=1;labelBackgroundColor=none;startArrow=none;startFill=0;startSize=5;endArrow=classicThin;endFill=1;endSize=5;jettySize=auto;orthogonalLoop=1;strokeColor=#B3B3B3;strokeWidth=1;fontFamily=Verdana;fontSize=12" parent="1" source="2c924340bb9dbf6c-2" target="2c924340bb9dbf6c-10" edge="1">
          <mxGeometry relative="1" as="geometry" />
        </mxCell>
        <mxCell id="2c924340bb9dbf6c-28" value="relation" style="edgeStyle=none;rounded=1;html=1;labelBackgroundColor=none;startArrow=none;startFill=0;startSize=5;endArrow=classicThin;endFill=1;endSize=5;jettySize=auto;orthogonalLoop=1;strokeColor=#B3B3B3;strokeWidth=1;fontFamily=Verdana;fontSize=12" parent="1" source="2c924340bb9dbf6c-2" target="2c924340bb9dbf6c-1" edge="1">
          <mxGeometry relative="1" as="geometry" />
        </mxCell>
        <mxCell id="2c924340bb9dbf6c-29" value="relation" style="edgeStyle=none;rounded=1;html=1;labelBackgroundColor=none;startArrow=none;startFill=0;startSize=5;endArrow=classicThin;endFill=1;endSize=5;jettySize=auto;orthogonalLoop=1;strokeColor=#B3B3B3;strokeWidth=1;fontFamily=Verdana;fontSize=12" parent="1" source="2c924340bb9dbf6c-2" target="2c924340bb9dbf6c-8" edge="1">
          <mxGeometry relative="1" as="geometry" />
        </mxCell>
        <mxCell id="2c924340bb9dbf6c-30" value="relation" style="edgeStyle=none;rounded=1;html=1;labelBackgroundColor=none;startArrow=none;startFill=0;startSize=5;endArrow=classicThin;endFill=1;endSize=5;jettySize=auto;orthogonalLoop=1;strokeColor=#B3B3B3;strokeWidth=1;fontFamily=Verdana;fontSize=12" parent="1" source="2c924340bb9dbf6c-2" target="2c924340bb9dbf6c-9" edge="1">
          <mxGeometry relative="1" as="geometry" />
        </mxCell>
        <mxCell id="2c924340bb9dbf6c-31" value="if the user click on the about us page" style="edgeStyle=none;rounded=1;html=1;labelBackgroundColor=none;startArrow=none;startFill=0;startSize=5;endArrow=classicThin;endFill=1;endSize=5;jettySize=auto;orthogonalLoop=1;strokeColor=#B3B3B3;strokeWidth=1;fontFamily=Verdana;fontSize=12;exitX=0.5;exitY=1;exitDx=0;exitDy=0;" parent="1" source="ev3tFohQ87v30KC1wkny-55" target="2c924340bb9dbf6c-2" edge="1">
          <mxGeometry x="-0.1619" y="1" relative="1" as="geometry">
            <mxPoint as="offset" />
          </mxGeometry>
        </mxCell>
        <mxCell id="2c924340bb9dbf6c-35" value="relation" style="edgeStyle=none;rounded=1;html=1;labelBackgroundColor=none;startArrow=none;startFill=0;startSize=5;endArrow=classicThin;endFill=1;endSize=5;jettySize=auto;orthogonalLoop=1;strokeColor=#B3B3B3;strokeWidth=1;fontFamily=Verdana;fontSize=12" parent="1" target="2c924340bb9dbf6c-7" edge="1">
          <mxGeometry relative="1" as="geometry">
            <mxPoint x="635.5519855728098" y="476.8049427244414" as="sourcePoint" />
          </mxGeometry>
        </mxCell>
        <mxCell id="2c924340bb9dbf6c-36" value="relation" style="edgeStyle=none;rounded=1;html=1;labelBackgroundColor=none;startArrow=none;startFill=0;startSize=5;endArrow=classicThin;endFill=1;endSize=5;jettySize=auto;orthogonalLoop=1;strokeColor=#B3B3B3;strokeWidth=1;fontFamily=Verdana;fontSize=12" parent="1" target="2c924340bb9dbf6c-6" edge="1">
          <mxGeometry relative="1" as="geometry">
            <mxPoint x="749.7927454946848" y="456.67818080585084" as="sourcePoint" />
          </mxGeometry>
        </mxCell>
        <mxCell id="2c924340bb9dbf6c-37" value="relation" style="edgeStyle=none;rounded=1;html=1;labelBackgroundColor=none;startArrow=none;startFill=0;startSize=5;endArrow=classicThin;endFill=1;endSize=5;jettySize=auto;orthogonalLoop=1;strokeColor=#B3B3B3;strokeWidth=1;fontFamily=Verdana;fontSize=12" parent="1" target="2c924340bb9dbf6c-13" edge="1">
          <mxGeometry relative="1" as="geometry">
            <mxPoint x="927.8858292742511" y="460.5246962316819" as="sourcePoint" />
          </mxGeometry>
        </mxCell>
        <mxCell id="2c924340bb9dbf6c-38" value="relation" style="edgeStyle=none;rounded=1;html=1;labelBackgroundColor=none;startArrow=none;startFill=0;startSize=5;endArrow=classicThin;endFill=1;endSize=5;jettySize=auto;orthogonalLoop=1;strokeColor=#B3B3B3;strokeWidth=1;fontFamily=Verdana;fontSize=12" parent="1" target="2c924340bb9dbf6c-12" edge="1">
          <mxGeometry relative="1" as="geometry">
            <mxPoint x="905.8777464480536" y="482.06096491102653" as="sourcePoint" />
          </mxGeometry>
        </mxCell>
        <mxCell id="2c924340bb9dbf6c-39" value="relation" style="edgeStyle=none;rounded=1;html=1;labelBackgroundColor=none;startArrow=none;startFill=0;startSize=5;endArrow=classicThin;endFill=1;endSize=5;jettySize=auto;orthogonalLoop=1;strokeColor=#B3B3B3;strokeWidth=1;fontFamily=Verdana;fontSize=12" parent="1" target="2c924340bb9dbf6c-22" edge="1">
          <mxGeometry relative="1" as="geometry">
            <mxPoint x="866.9735543798724" y="489.9490821856841" as="sourcePoint" />
          </mxGeometry>
        </mxCell>
        <mxCell id="2c924340bb9dbf6c-46" value="HOVERING" style="edgeStyle=none;rounded=1;html=1;labelBackgroundColor=none;startArrow=none;startFill=0;startSize=5;endArrow=classicThin;endFill=1;endSize=5;jettySize=auto;orthogonalLoop=1;strokeColor=#B3B3B3;strokeWidth=1;fontFamily=Verdana;fontSize=12" parent="1" source="2c924340bb9dbf6c-3" target="2c924340bb9dbf6c-11" edge="1">
          <mxGeometry relative="1" as="geometry" />
        </mxCell>
        <mxCell id="2c924340bb9dbf6c-55" value="&lt;span&gt;Topic 8&lt;/span&gt;" style="whiteSpace=wrap;html=1;rounded=1;shadow=1;comic=0;labelBackgroundColor=none;strokeWidth=2;fontFamily=Verdana;fontSize=12;align=center;arcSize=50;" parent="1" vertex="1">
          <mxGeometry x="70.54000000000002" y="545" width="100" height="20" as="geometry" />
        </mxCell>
        <mxCell id="2c924340bb9dbf6c-56" value="&lt;span&gt;Topic 13&lt;/span&gt;" style="whiteSpace=wrap;html=1;rounded=1;shadow=1;comic=0;labelBackgroundColor=none;strokeWidth=2;fontFamily=Verdana;fontSize=12;align=center;arcSize=50;" parent="1" vertex="1">
          <mxGeometry x="-99.45999999999998" y="605" width="100" height="20" as="geometry" />
        </mxCell>
        <mxCell id="2c924340bb9dbf6c-61" value="relation" style="edgeStyle=none;rounded=1;html=1;labelBackgroundColor=none;startArrow=none;startFill=0;startSize=5;endArrow=classicThin;endFill=1;endSize=5;jettySize=auto;orthogonalLoop=1;strokeColor=#B3B3B3;strokeWidth=1;fontFamily=Verdana;fontSize=12" parent="1" source="2c924340bb9dbf6c-2" target="2c924340bb9dbf6c-55" edge="1">
          <mxGeometry relative="1" as="geometry" />
        </mxCell>
        <mxCell id="2c924340bb9dbf6c-62" value="relation" style="edgeStyle=none;rounded=1;html=1;labelBackgroundColor=none;startArrow=none;startFill=0;startSize=5;endArrow=classicThin;endFill=1;endSize=5;jettySize=auto;orthogonalLoop=1;strokeColor=#B3B3B3;strokeWidth=1;fontFamily=Verdana;fontSize=12" parent="1" source="2c924340bb9dbf6c-2" target="2c924340bb9dbf6c-56" edge="1">
          <mxGeometry relative="1" as="geometry" />
        </mxCell>
        <mxCell id="2c924340bb9dbf6c-63" value="relation" style="edgeStyle=none;rounded=1;html=1;labelBackgroundColor=none;startArrow=none;startFill=0;startSize=5;endArrow=classicThin;endFill=1;endSize=5;jettySize=auto;orthogonalLoop=1;strokeColor=#B3B3B3;strokeWidth=1;fontFamily=Verdana;fontSize=12" parent="1" target="2c924340bb9dbf6c-53" edge="1">
          <mxGeometry relative="1" as="geometry">
            <mxPoint x="986.4904590731394" y="304.1097006105849" as="sourcePoint" />
          </mxGeometry>
        </mxCell>
        <mxCell id="2c924340bb9dbf6c-64" value="relation" style="edgeStyle=none;rounded=1;html=1;labelBackgroundColor=none;startArrow=none;startFill=0;startSize=5;endArrow=classicThin;endFill=1;endSize=5;jettySize=auto;orthogonalLoop=1;strokeColor=#B3B3B3;strokeWidth=1;fontFamily=Verdana;fontSize=12" parent="1" target="2c924340bb9dbf6c-54" edge="1">
          <mxGeometry relative="1" as="geometry">
            <mxPoint x="977.8239931581406" y="378.194271053158" as="sourcePoint" />
          </mxGeometry>
        </mxCell>
        <mxCell id="2c924340bb9dbf6c-65" value="relation" style="edgeStyle=none;rounded=1;html=1;labelBackgroundColor=none;startArrow=none;startFill=0;startSize=5;endArrow=classicThin;endFill=1;endSize=5;jettySize=auto;orthogonalLoop=1;strokeColor=#B3B3B3;strokeWidth=1;fontFamily=Verdana;fontSize=12" parent="1" target="2c924340bb9dbf6c-52" edge="1">
          <mxGeometry relative="1" as="geometry">
            <mxPoint x="820" y="340" as="sourcePoint" />
          </mxGeometry>
        </mxCell>
        <mxCell id="2c924340bb9dbf6c-66" value="relation" style="edgeStyle=none;rounded=1;html=1;labelBackgroundColor=none;startArrow=none;startFill=0;startSize=5;endArrow=classicThin;endFill=1;endSize=5;jettySize=auto;orthogonalLoop=1;strokeColor=#B3B3B3;strokeWidth=1;fontFamily=Verdana;fontSize=12" parent="1" source="2c924340bb9dbf6c-51" edge="1">
          <mxGeometry relative="1" as="geometry">
            <mxPoint x="711.7467756692904" y="422.71981313835977" as="targetPoint" />
          </mxGeometry>
        </mxCell>
        <mxCell id="2c924340bb9dbf6c-77" value="relation" style="edgeStyle=none;rounded=1;html=1;labelBackgroundColor=none;startArrow=none;startFill=0;startSize=5;endArrow=classicThin;endFill=1;endSize=5;jettySize=auto;orthogonalLoop=1;strokeColor=#B3B3B3;strokeWidth=1;fontFamily=Verdana;fontSize=12" parent="1" target="2c924340bb9dbf6c-58" edge="1">
          <mxGeometry relative="1" as="geometry">
            <mxPoint x="683.3741084355565" y="499.7553493866617" as="sourcePoint" />
          </mxGeometry>
        </mxCell>
        <mxCell id="2c924340bb9dbf6c-78" value="relation" style="edgeStyle=none;rounded=1;html=1;labelBackgroundColor=none;startArrow=none;startFill=0;startSize=5;endArrow=classicThin;endFill=1;endSize=5;jettySize=auto;orthogonalLoop=1;strokeColor=#B3B3B3;strokeWidth=1;fontFamily=Verdana;fontSize=12" parent="1" target="2c924340bb9dbf6c-59" edge="1">
          <mxGeometry relative="1" as="geometry">
            <mxPoint x="515.0577295270195" y="558.719875926621" as="sourcePoint" />
          </mxGeometry>
        </mxCell>
        <mxCell id="ev3tFohQ87v30KC1wkny-94" style="edgeStyle=orthogonalEdgeStyle;rounded=0;orthogonalLoop=1;jettySize=auto;html=1;exitX=0;exitY=1;exitDx=0;exitDy=0;entryX=1;entryY=0.5;entryDx=0;entryDy=0;" edge="1" parent="1" source="ev3tFohQ87v30KC1wkny-27" target="ev3tFohQ87v30KC1wkny-29">
          <mxGeometry relative="1" as="geometry" />
        </mxCell>
        <mxCell id="ev3tFohQ87v30KC1wkny-96" style="edgeStyle=orthogonalEdgeStyle;rounded=0;orthogonalLoop=1;jettySize=auto;html=1;exitX=1;exitY=0.5;exitDx=0;exitDy=0;entryX=0;entryY=0.5;entryDx=0;entryDy=0;" edge="1" parent="1" source="ev3tFohQ87v30KC1wkny-27" target="ev3tFohQ87v30KC1wkny-28">
          <mxGeometry relative="1" as="geometry">
            <Array as="points">
              <mxPoint x="960" y="780" />
              <mxPoint x="1090" y="780" />
              <mxPoint x="1090" y="820" />
              <mxPoint x="1350" y="820" />
            </Array>
          </mxGeometry>
        </mxCell>
        <mxCell id="ev3tFohQ87v30KC1wkny-98" style="edgeStyle=orthogonalEdgeStyle;rounded=0;orthogonalLoop=1;jettySize=auto;html=1;exitX=0.5;exitY=0;exitDx=0;exitDy=0;entryX=0.976;entryY=0.727;entryDx=0;entryDy=0;startArrow=none;entryPerimeter=0;" edge="1" parent="1" source="ev3tFohQ87v30KC1wkny-97" target="2c924340bb9dbf6c-4">
          <mxGeometry relative="1" as="geometry">
            <Array as="points">
              <mxPoint x="740" y="410" />
              <mxPoint x="680" y="410" />
              <mxPoint x="680" y="347" />
            </Array>
          </mxGeometry>
        </mxCell>
        <mxCell id="ev3tFohQ87v30KC1wkny-27" value="&lt;span&gt;MAKE ACCOUNT.HTML&lt;/span&gt;" style="ellipse;whiteSpace=wrap;html=1;rounded=1;shadow=1;comic=0;labelBackgroundColor=none;strokeWidth=2;fontFamily=Verdana;fontSize=12;align=center;" vertex="1" parent="1">
          <mxGeometry x="840" y="670" width="120" height="80" as="geometry" />
        </mxCell>
        <mxCell id="ev3tFohQ87v30KC1wkny-28" value="BUYER.HTML" style="ellipse;whiteSpace=wrap;html=1;rounded=1;shadow=1;comic=0;labelBackgroundColor=none;strokeWidth=2;fontFamily=Verdana;fontSize=12;align=center;" vertex="1" parent="1">
          <mxGeometry x="1350" y="825" width="120" height="80" as="geometry" />
        </mxCell>
        <mxCell id="ev3tFohQ87v30KC1wkny-29" value="&lt;span&gt;SELLER.HTML&lt;/span&gt;" style="ellipse;whiteSpace=wrap;html=1;rounded=1;shadow=1;comic=0;labelBackgroundColor=none;strokeWidth=2;fontFamily=Verdana;fontSize=12;align=center;" vertex="1" parent="1">
          <mxGeometry x="640" y="1000" width="120" height="80" as="geometry" />
        </mxCell>
        <mxCell id="ev3tFohQ87v30KC1wkny-30" value="&lt;span&gt;Topic 21&lt;/span&gt;" style="whiteSpace=wrap;html=1;rounded=1;shadow=1;comic=0;labelBackgroundColor=none;strokeWidth=2;fontFamily=Verdana;fontSize=12;align=center;arcSize=50;" vertex="1" parent="1">
          <mxGeometry x="1450" y="935" width="100" height="20" as="geometry" />
        </mxCell>
        <mxCell id="ev3tFohQ87v30KC1wkny-31" value="&lt;span&gt;Topic 22&lt;/span&gt;" style="whiteSpace=wrap;html=1;rounded=1;shadow=1;comic=0;labelBackgroundColor=none;strokeWidth=2;fontFamily=Verdana;fontSize=12;align=center;arcSize=50;" vertex="1" parent="1">
          <mxGeometry x="1520" y="885" width="100" height="20" as="geometry" />
        </mxCell>
        <mxCell id="ev3tFohQ87v30KC1wkny-32" value="&lt;span&gt;Topic 20&lt;/span&gt;" style="whiteSpace=wrap;html=1;rounded=1;shadow=1;comic=0;labelBackgroundColor=none;strokeWidth=2;fontFamily=Verdana;fontSize=12;align=center;arcSize=50;" vertex="1" parent="1">
          <mxGeometry x="1350" y="975" width="100" height="20" as="geometry" />
        </mxCell>
        <mxCell id="ev3tFohQ87v30KC1wkny-33" value="End" style="whiteSpace=wrap;html=1;rounded=1;shadow=1;comic=0;labelBackgroundColor=none;strokeWidth=2;fontFamily=Verdana;fontSize=12;align=center;arcSize=50;" vertex="1" parent="1">
          <mxGeometry x="260" y="830" width="100" height="40" as="geometry" />
        </mxCell>
        <mxCell id="ev3tFohQ87v30KC1wkny-34" value="Condition" style="rhombus;whiteSpace=wrap;html=1;rounded=0;shadow=1;comic=0;labelBackgroundColor=none;strokeWidth=2;fontFamily=Verdana;fontSize=12;align=center;" vertex="1" parent="1">
          <mxGeometry x="270" y="970" width="80" height="80" as="geometry" />
        </mxCell>
        <mxCell id="ev3tFohQ87v30KC1wkny-35" value="&lt;span&gt;Process 3&lt;/span&gt;" style="rounded=1;whiteSpace=wrap;html=1;shadow=1;comic=0;labelBackgroundColor=none;strokeWidth=2;fontFamily=Verdana;fontSize=12;align=center;" vertex="1" parent="1">
          <mxGeometry x="250" y="1080" width="120" height="60" as="geometry" />
        </mxCell>
        <mxCell id="ev3tFohQ87v30KC1wkny-36" value="Process 2" style="rounded=1;whiteSpace=wrap;html=1;shadow=1;comic=0;labelBackgroundColor=none;strokeWidth=2;fontFamily=Verdana;fontSize=12;align=center;" vertex="1" parent="1">
          <mxGeometry x="480" y="1090" width="120" height="60" as="geometry" />
        </mxCell>
        <mxCell id="ev3tFohQ87v30KC1wkny-37" value="relation" style="edgeStyle=none;rounded=1;html=1;labelBackgroundColor=none;startArrow=none;startFill=0;startSize=5;endArrow=classicThin;endFill=1;endSize=5;jettySize=auto;orthogonalLoop=1;strokeColor=#B3B3B3;strokeWidth=1;fontFamily=Verdana;fontSize=12" edge="1" parent="1" source="ev3tFohQ87v30KC1wkny-29" target="ev3tFohQ87v30KC1wkny-36">
          <mxGeometry relative="1" as="geometry" />
        </mxCell>
        <mxCell id="ev3tFohQ87v30KC1wkny-38" value="relation" style="edgeStyle=none;rounded=1;html=1;labelBackgroundColor=none;startArrow=none;startFill=0;startSize=5;endArrow=classicThin;endFill=1;endSize=5;jettySize=auto;orthogonalLoop=1;strokeColor=#B3B3B3;strokeWidth=1;fontFamily=Verdana;fontSize=12" edge="1" parent="1" source="ev3tFohQ87v30KC1wkny-36" target="ev3tFohQ87v30KC1wkny-35">
          <mxGeometry relative="1" as="geometry" />
        </mxCell>
        <mxCell id="ev3tFohQ87v30KC1wkny-39" value="relation" style="edgeStyle=none;rounded=1;html=1;labelBackgroundColor=none;startArrow=none;startFill=0;startSize=5;endArrow=classicThin;endFill=1;endSize=5;jettySize=auto;orthogonalLoop=1;strokeColor=#B3B3B3;strokeWidth=1;fontFamily=Verdana;fontSize=12" edge="1" parent="1" source="ev3tFohQ87v30KC1wkny-35" target="ev3tFohQ87v30KC1wkny-34">
          <mxGeometry relative="1" as="geometry" />
        </mxCell>
        <mxCell id="ev3tFohQ87v30KC1wkny-40" value="Yes" style="edgeStyle=none;rounded=1;html=1;labelBackgroundColor=none;startArrow=none;startFill=0;startSize=5;endArrow=classicThin;endFill=1;endSize=5;jettySize=auto;orthogonalLoop=1;strokeColor=#B3B3B3;strokeWidth=1;fontFamily=Verdana;fontSize=12" edge="1" parent="1" source="ev3tFohQ87v30KC1wkny-34" target="ev3tFohQ87v30KC1wkny-33">
          <mxGeometry x="-0.7935" y="10" relative="1" as="geometry">
            <mxPoint as="offset" />
          </mxGeometry>
        </mxCell>
        <mxCell id="ev3tFohQ87v30KC1wkny-41" value="Si el usuario quiere hacer una cuenta para vender" style="rounded=1;whiteSpace=wrap;html=1;shadow=1;comic=0;labelBackgroundColor=none;strokeWidth=2;fontFamily=Verdana;fontSize=12;align=center;" vertex="1" parent="1">
          <mxGeometry x="1110" y="740" width="120" height="60" as="geometry" />
        </mxCell>
        <mxCell id="ev3tFohQ87v30KC1wkny-42" value="&lt;span&gt;Sub-node 3&lt;/span&gt;" style="ellipse;whiteSpace=wrap;html=1;rounded=1;shadow=1;comic=0;labelBackgroundColor=none;strokeWidth=2;fontFamily=Verdana;fontSize=12;align=center;" vertex="1" parent="1">
          <mxGeometry x="1440" y="715" width="120" height="80" as="geometry" />
        </mxCell>
        <mxCell id="ev3tFohQ87v30KC1wkny-43" value="&lt;span&gt;Topic 24&lt;/span&gt;" style="whiteSpace=wrap;html=1;rounded=1;shadow=1;comic=0;labelBackgroundColor=none;strokeWidth=2;fontFamily=Verdana;fontSize=12;align=center;arcSize=50;" vertex="1" parent="1">
          <mxGeometry x="1510" y="665" width="100" height="20" as="geometry" />
        </mxCell>
        <mxCell id="ev3tFohQ87v30KC1wkny-44" value="&lt;span&gt;Topic 23&lt;/span&gt;" style="whiteSpace=wrap;html=1;rounded=1;shadow=1;comic=0;labelBackgroundColor=none;strokeWidth=2;fontFamily=Verdana;fontSize=12;align=center;arcSize=50;" vertex="1" parent="1">
          <mxGeometry x="1490" y="830" width="100" height="20" as="geometry" />
        </mxCell>
        <mxCell id="ev3tFohQ87v30KC1wkny-45" value="&lt;span&gt;Topic 19&lt;/span&gt;" style="whiteSpace=wrap;html=1;rounded=1;shadow=1;comic=0;labelBackgroundColor=none;strokeWidth=2;fontFamily=Verdana;fontSize=12;align=center;arcSize=50;" vertex="1" parent="1">
          <mxGeometry x="820" y="1090" width="100" height="20" as="geometry" />
        </mxCell>
        <mxCell id="ev3tFohQ87v30KC1wkny-46" value="&lt;span&gt;Topic 18&lt;/span&gt;" style="whiteSpace=wrap;html=1;rounded=1;shadow=1;comic=0;labelBackgroundColor=none;strokeWidth=2;fontFamily=Verdana;fontSize=12;align=center;arcSize=50;" vertex="1" parent="1">
          <mxGeometry x="690" y="1130" width="100" height="20" as="geometry" />
        </mxCell>
        <mxCell id="ev3tFohQ87v30KC1wkny-47" value="&lt;span&gt;Sub-node 7&lt;/span&gt;" style="ellipse;whiteSpace=wrap;html=1;rounded=1;shadow=1;comic=0;labelBackgroundColor=none;strokeWidth=2;fontFamily=Verdana;fontSize=12;align=center;" vertex="1" parent="1">
          <mxGeometry x="390" y="970" width="120" height="80" as="geometry" />
        </mxCell>
        <mxCell id="ev3tFohQ87v30KC1wkny-48" value="&lt;span&gt;Topic 16&lt;/span&gt;" style="whiteSpace=wrap;html=1;rounded=1;shadow=1;comic=0;labelBackgroundColor=none;strokeWidth=2;fontFamily=Verdana;fontSize=12;align=center;arcSize=50;" vertex="1" parent="1">
          <mxGeometry x="510" y="880" width="100" height="20" as="geometry" />
        </mxCell>
        <mxCell id="ev3tFohQ87v30KC1wkny-49" value="&lt;span&gt;Topic 15&lt;/span&gt;" style="whiteSpace=wrap;html=1;rounded=1;shadow=1;comic=0;labelBackgroundColor=none;strokeWidth=2;fontFamily=Verdana;fontSize=12;align=center;arcSize=50;" vertex="1" parent="1">
          <mxGeometry x="450" y="850" width="100" height="20" as="geometry" />
        </mxCell>
        <mxCell id="ev3tFohQ87v30KC1wkny-50" value="&lt;span&gt;Topic 14&lt;/span&gt;" style="whiteSpace=wrap;html=1;rounded=1;shadow=1;comic=0;labelBackgroundColor=none;strokeWidth=2;fontFamily=Verdana;fontSize=12;align=center;arcSize=50;" vertex="1" parent="1">
          <mxGeometry x="360" y="890" width="100" height="20" as="geometry" />
        </mxCell>
        <mxCell id="ev3tFohQ87v30KC1wkny-51" value="relation" style="edgeStyle=none;rounded=1;html=1;labelBackgroundColor=none;startArrow=none;startFill=0;startSize=5;endArrow=classicThin;endFill=1;endSize=5;jettySize=auto;orthogonalLoop=1;strokeColor=#B3B3B3;strokeWidth=1;fontFamily=Verdana;fontSize=12" edge="1" parent="1" source="ev3tFohQ87v30KC1wkny-47" target="ev3tFohQ87v30KC1wkny-50">
          <mxGeometry relative="1" as="geometry" />
        </mxCell>
        <mxCell id="ev3tFohQ87v30KC1wkny-52" value="relation" style="edgeStyle=none;rounded=1;html=1;labelBackgroundColor=none;startArrow=none;startFill=0;startSize=5;endArrow=classicThin;endFill=1;endSize=5;jettySize=auto;orthogonalLoop=1;strokeColor=#B3B3B3;strokeWidth=1;fontFamily=Verdana;fontSize=12" edge="1" parent="1" source="ev3tFohQ87v30KC1wkny-47" target="ev3tFohQ87v30KC1wkny-49">
          <mxGeometry relative="1" as="geometry" />
        </mxCell>
        <mxCell id="ev3tFohQ87v30KC1wkny-53" value="relation" style="edgeStyle=none;rounded=1;html=1;labelBackgroundColor=none;startArrow=none;startFill=0;startSize=5;endArrow=classicThin;endFill=1;endSize=5;jettySize=auto;orthogonalLoop=1;strokeColor=#B3B3B3;strokeWidth=1;fontFamily=Verdana;fontSize=12" edge="1" parent="1" source="ev3tFohQ87v30KC1wkny-47" target="ev3tFohQ87v30KC1wkny-48">
          <mxGeometry relative="1" as="geometry" />
        </mxCell>
        <mxCell id="ev3tFohQ87v30KC1wkny-54" value="No" style="edgeStyle=none;rounded=1;html=1;labelBackgroundColor=none;startArrow=none;startFill=0;startSize=5;endArrow=classicThin;endFill=1;endSize=5;jettySize=auto;orthogonalLoop=1;strokeColor=#B3B3B3;strokeWidth=1;fontFamily=Verdana;fontSize=12" edge="1" parent="1" source="ev3tFohQ87v30KC1wkny-34" target="ev3tFohQ87v30KC1wkny-47">
          <mxGeometry x="-0.504" y="20" relative="1" as="geometry">
            <mxPoint as="offset" />
          </mxGeometry>
        </mxCell>
        <mxCell id="ev3tFohQ87v30KC1wkny-55" value="HEADER" style="ellipse;whiteSpace=wrap;html=1;aspect=fixed;" vertex="1" parent="1">
          <mxGeometry x="-19.45999999999998" y="155" width="80" height="80" as="geometry" />
        </mxCell>
        <mxCell id="ev3tFohQ87v30KC1wkny-56" value="" style="endArrow=classic;html=1;rounded=0;exitX=1;exitY=0.5;exitDx=0;exitDy=0;entryX=0;entryY=0.5;entryDx=0;entryDy=0;" edge="1" parent="1" source="ev3tFohQ87v30KC1wkny-55" target="2c924340bb9dbf6c-4">
          <mxGeometry width="50" height="50" relative="1" as="geometry">
            <mxPoint x="180.54000000000002" y="365" as="sourcePoint" />
            <mxPoint x="250.00371596030897" y="352.65677821459803" as="targetPoint" />
          </mxGeometry>
        </mxCell>
        <mxCell id="ev3tFohQ87v30KC1wkny-57" value="&lt;span&gt;Topic 10&lt;/span&gt;" style="whiteSpace=wrap;html=1;rounded=1;shadow=1;comic=0;labelBackgroundColor=none;strokeWidth=2;fontFamily=Verdana;fontSize=12;align=center;arcSize=50;" vertex="1" parent="1">
          <mxGeometry x="-719.46" y="265" width="100" height="20" as="geometry" />
        </mxCell>
        <mxCell id="ev3tFohQ87v30KC1wkny-58" value="VENDORS.HTML" style="ellipse;whiteSpace=wrap;html=1;rounded=1;shadow=1;comic=0;labelBackgroundColor=none;strokeWidth=2;fontFamily=Verdana;fontSize=12;align=center;" vertex="1" parent="1">
          <mxGeometry x="-599.46" y="305" width="120" height="80" as="geometry" />
        </mxCell>
        <mxCell id="ev3tFohQ87v30KC1wkny-59" value="&lt;span&gt;Topic 11&lt;/span&gt;" style="whiteSpace=wrap;html=1;rounded=1;shadow=1;comic=0;labelBackgroundColor=none;strokeWidth=2;fontFamily=Verdana;fontSize=12;align=center;arcSize=50;" vertex="1" parent="1">
          <mxGeometry x="-749.46" y="335" width="100" height="20" as="geometry" />
        </mxCell>
        <mxCell id="ev3tFohQ87v30KC1wkny-60" value="&lt;span&gt;Topic 12&lt;/span&gt;" style="whiteSpace=wrap;html=1;rounded=1;shadow=1;comic=0;labelBackgroundColor=none;strokeWidth=2;fontFamily=Verdana;fontSize=12;align=center;arcSize=50;" vertex="1" parent="1">
          <mxGeometry x="-749.46" y="405" width="100" height="20" as="geometry" />
        </mxCell>
        <mxCell id="ev3tFohQ87v30KC1wkny-61" value="&lt;span&gt;Topic 9&lt;/span&gt;" style="whiteSpace=wrap;html=1;rounded=1;shadow=1;comic=0;labelBackgroundColor=none;strokeWidth=2;fontFamily=Verdana;fontSize=12;align=center;arcSize=50;" vertex="1" parent="1">
          <mxGeometry x="-539.46" y="235" width="100" height="20" as="geometry" />
        </mxCell>
        <mxCell id="ev3tFohQ87v30KC1wkny-62" value="relation" style="edgeStyle=none;rounded=1;html=1;labelBackgroundColor=none;startArrow=none;startFill=0;startSize=5;endArrow=classicThin;endFill=1;endSize=5;jettySize=auto;orthogonalLoop=1;strokeColor=#B3B3B3;strokeWidth=1;fontFamily=Verdana;fontSize=12" edge="1" parent="1" source="ev3tFohQ87v30KC1wkny-58" target="ev3tFohQ87v30KC1wkny-61">
          <mxGeometry relative="1" as="geometry" />
        </mxCell>
        <mxCell id="ev3tFohQ87v30KC1wkny-63" value="relation" style="edgeStyle=none;rounded=1;html=1;labelBackgroundColor=none;startArrow=none;startFill=0;startSize=5;endArrow=classicThin;endFill=1;endSize=5;jettySize=auto;orthogonalLoop=1;strokeColor=#B3B3B3;strokeWidth=1;fontFamily=Verdana;fontSize=12" edge="1" parent="1" source="ev3tFohQ87v30KC1wkny-58" target="ev3tFohQ87v30KC1wkny-57">
          <mxGeometry relative="1" as="geometry" />
        </mxCell>
        <mxCell id="ev3tFohQ87v30KC1wkny-64" value="relation" style="edgeStyle=none;rounded=1;html=1;labelBackgroundColor=none;startArrow=none;startFill=0;startSize=5;endArrow=classicThin;endFill=1;endSize=5;jettySize=auto;orthogonalLoop=1;strokeColor=#B3B3B3;strokeWidth=1;fontFamily=Verdana;fontSize=12" edge="1" parent="1" source="ev3tFohQ87v30KC1wkny-58" target="ev3tFohQ87v30KC1wkny-59">
          <mxGeometry relative="1" as="geometry" />
        </mxCell>
        <mxCell id="ev3tFohQ87v30KC1wkny-65" value="relation" style="edgeStyle=none;rounded=1;html=1;labelBackgroundColor=none;startArrow=none;startFill=0;startSize=5;endArrow=classicThin;endFill=1;endSize=5;jettySize=auto;orthogonalLoop=1;strokeColor=#B3B3B3;strokeWidth=1;fontFamily=Verdana;fontSize=12" edge="1" parent="1" source="ev3tFohQ87v30KC1wkny-58" target="ev3tFohQ87v30KC1wkny-60">
          <mxGeometry relative="1" as="geometry" />
        </mxCell>
        <mxCell id="ev3tFohQ87v30KC1wkny-66" value="&lt;span&gt;Topic 8&lt;/span&gt;" style="whiteSpace=wrap;html=1;rounded=1;shadow=1;comic=0;labelBackgroundColor=none;strokeWidth=2;fontFamily=Verdana;fontSize=12;align=center;arcSize=50;" vertex="1" parent="1">
          <mxGeometry x="-439.46" y="405" width="100" height="20" as="geometry" />
        </mxCell>
        <mxCell id="ev3tFohQ87v30KC1wkny-67" value="&lt;span&gt;Topic 13&lt;/span&gt;" style="whiteSpace=wrap;html=1;rounded=1;shadow=1;comic=0;labelBackgroundColor=none;strokeWidth=2;fontFamily=Verdana;fontSize=12;align=center;arcSize=50;" vertex="1" parent="1">
          <mxGeometry x="-589.46" y="435" width="100" height="20" as="geometry" />
        </mxCell>
        <mxCell id="ev3tFohQ87v30KC1wkny-68" value="relation" style="edgeStyle=none;rounded=1;html=1;labelBackgroundColor=none;startArrow=none;startFill=0;startSize=5;endArrow=classicThin;endFill=1;endSize=5;jettySize=auto;orthogonalLoop=1;strokeColor=#B3B3B3;strokeWidth=1;fontFamily=Verdana;fontSize=12" edge="1" parent="1" source="ev3tFohQ87v30KC1wkny-58" target="ev3tFohQ87v30KC1wkny-66">
          <mxGeometry relative="1" as="geometry" />
        </mxCell>
        <mxCell id="ev3tFohQ87v30KC1wkny-69" value="relation" style="edgeStyle=none;rounded=1;html=1;labelBackgroundColor=none;startArrow=none;startFill=0;startSize=5;endArrow=classicThin;endFill=1;endSize=5;jettySize=auto;orthogonalLoop=1;strokeColor=#B3B3B3;strokeWidth=1;fontFamily=Verdana;fontSize=12" edge="1" parent="1" source="ev3tFohQ87v30KC1wkny-58" target="ev3tFohQ87v30KC1wkny-67">
          <mxGeometry relative="1" as="geometry" />
        </mxCell>
        <mxCell id="ev3tFohQ87v30KC1wkny-73" value="if the user click on the about us page" style="edgeStyle=none;rounded=1;html=1;labelBackgroundColor=none;startArrow=none;startFill=0;startSize=5;endArrow=classicThin;endFill=1;endSize=5;jettySize=auto;orthogonalLoop=1;strokeColor=#B3B3B3;strokeWidth=1;fontFamily=Verdana;fontSize=12;exitX=0;exitY=0.5;exitDx=0;exitDy=0;entryX=1;entryY=0.5;entryDx=0;entryDy=0;" edge="1" parent="1" source="ev3tFohQ87v30KC1wkny-55" target="ev3tFohQ87v30KC1wkny-58">
          <mxGeometry x="-0.1817" y="-12" relative="1" as="geometry">
            <mxPoint x="80.54000000000002" y="235" as="sourcePoint" />
            <mxPoint x="-219.45999999999998" y="295" as="targetPoint" />
            <mxPoint x="1" as="offset" />
          </mxGeometry>
        </mxCell>
        <mxCell id="ev3tFohQ87v30KC1wkny-95" value="Si el usuario quiere hacer una cuenta para comprar" style="rounded=1;whiteSpace=wrap;html=1;shadow=1;comic=0;labelBackgroundColor=none;strokeWidth=2;fontFamily=Verdana;fontSize=12;align=center;" vertex="1" parent="1">
          <mxGeometry x="800" y="865" width="120" height="60" as="geometry" />
        </mxCell>
        <mxCell id="ev3tFohQ87v30KC1wkny-101" value="" style="edgeStyle=orthogonalEdgeStyle;rounded=0;orthogonalLoop=1;jettySize=auto;html=1;exitX=1;exitY=0.5;exitDx=0;exitDy=0;endArrow=none;entryX=0;entryY=0.5;entryDx=0;entryDy=0;startArrow=none;" edge="1" parent="1" source="ev3tFohQ87v30KC1wkny-103" target="2c924340bb9dbf6c-3">
          <mxGeometry relative="1" as="geometry">
            <mxPoint x="792.4264068711927" y="102.57359312880703" as="sourcePoint" />
            <mxPoint x="1090" y="-95" as="targetPoint" />
            <Array as="points">
              <mxPoint x="1320" y="65" />
            </Array>
          </mxGeometry>
        </mxCell>
        <mxCell id="ev3tFohQ87v30KC1wkny-97" value="Si el usuario decide crear una cuenta nueva" style="rounded=1;whiteSpace=wrap;html=1;shadow=1;comic=0;labelBackgroundColor=none;strokeWidth=2;fontFamily=Verdana;fontSize=12;align=center;" vertex="1" parent="1">
          <mxGeometry x="680" y="440" width="120" height="60" as="geometry" />
        </mxCell>
        <mxCell id="ev3tFohQ87v30KC1wkny-102" value="" style="edgeStyle=orthogonalEdgeStyle;rounded=0;orthogonalLoop=1;jettySize=auto;html=1;exitX=0;exitY=0;exitDx=0;exitDy=0;entryX=1;entryY=0.5;entryDx=0;entryDy=0;endArrow=none;" edge="1" parent="1" source="ev3tFohQ87v30KC1wkny-27" target="ev3tFohQ87v30KC1wkny-97">
          <mxGeometry relative="1" as="geometry">
            <mxPoint x="857.5735931288068" y="681.7157287525383" as="sourcePoint" />
            <mxPoint x="632.4264068711927" y="362.4264068711932" as="targetPoint" />
            <Array as="points">
              <mxPoint x="820" y="682" />
              <mxPoint x="820" y="470" />
            </Array>
          </mxGeometry>
        </mxCell>
        <mxCell id="ev3tFohQ87v30KC1wkny-104" value="FOOTER" style="ellipse;whiteSpace=wrap;html=1;aspect=fixed;" vertex="1" parent="1">
          <mxGeometry x="800" y="105" width="80" height="80" as="geometry" />
        </mxCell>
        <mxCell id="ev3tFohQ87v30KC1wkny-105" value="" style="edgeStyle=orthogonalEdgeStyle;rounded=0;orthogonalLoop=1;jettySize=auto;html=1;exitX=1;exitY=0;exitDx=0;exitDy=0;endArrow=none;entryX=0.5;entryY=1;entryDx=0;entryDy=0;" edge="1" parent="1" source="2c924340bb9dbf6c-4" target="ev3tFohQ87v30KC1wkny-104">
          <mxGeometry relative="1" as="geometry">
            <mxPoint x="632.4264068711932" y="277.5735931288068" as="sourcePoint" />
            <mxPoint x="1040" y="-79.99999999999977" as="targetPoint" />
            <Array as="points" />
          </mxGeometry>
        </mxCell>
        <mxCell id="ev3tFohQ87v30KC1wkny-103" value="&lt;span style=&quot;&quot;&gt;Si el usuario hace click en el botón de contáctanos&lt;/span&gt;" style="rounded=1;whiteSpace=wrap;html=1;shadow=1;comic=0;labelBackgroundColor=none;strokeWidth=2;fontFamily=Verdana;fontSize=12;align=center;" vertex="1" parent="1">
          <mxGeometry x="1080" y="35" width="120" height="60" as="geometry" />
        </mxCell>
        <mxCell id="ev3tFohQ87v30KC1wkny-106" value="" style="edgeStyle=orthogonalEdgeStyle;rounded=0;orthogonalLoop=1;jettySize=auto;html=1;exitX=1;exitY=0.5;exitDx=0;exitDy=0;endArrow=none;entryX=0;entryY=0.5;entryDx=0;entryDy=0;startArrow=none;" edge="1" parent="1" source="ev3tFohQ87v30KC1wkny-104" target="ev3tFohQ87v30KC1wkny-103">
          <mxGeometry relative="1" as="geometry">
            <mxPoint x="890" y="110" as="sourcePoint" />
            <mxPoint x="1160" y="250" as="targetPoint" />
            <Array as="points">
              <mxPoint x="880" y="65" />
            </Array>
          </mxGeometry>
        </mxCell>
        <mxCell id="ev3tFohQ87v30KC1wkny-141" value="LINKEDIN" style="whiteSpace=wrap;html=1;rounded=1;shadow=1;comic=0;labelBackgroundColor=none;strokeWidth=2;fontFamily=Verdana;fontSize=12;align=center;arcSize=50;" vertex="1" parent="1">
          <mxGeometry x="1300" y="-80" width="150" height="30" as="geometry" />
        </mxCell>
        <mxCell id="ev3tFohQ87v30KC1wkny-142" value="TWITTER" style="whiteSpace=wrap;html=1;rounded=1;shadow=1;comic=0;labelBackgroundColor=none;strokeWidth=2;fontFamily=Verdana;fontSize=12;align=center;arcSize=50;" vertex="1" parent="1">
          <mxGeometry x="1270" y="-130" width="150" height="30" as="geometry" />
        </mxCell>
        <mxCell id="ev3tFohQ87v30KC1wkny-143" value="GITHUB" style="whiteSpace=wrap;html=1;rounded=1;shadow=1;comic=0;labelBackgroundColor=none;strokeWidth=2;fontFamily=Verdana;fontSize=12;align=center;arcSize=50;" vertex="1" parent="1">
          <mxGeometry x="1240" y="-180" width="150" height="30" as="geometry" />
        </mxCell>
      </root>
    </mxGraphModel>
  </diagram>
</mxfile>
